 http://www.shotpix.com/images/90235371660139805928.jpg


Source: 720p.BluRay.x264-NOSCREENS

  http://www.imdb.com/title/tt1716759/



Two joyriders Jesse and Sam discover something hidden in the back seat of the car that could change their lives forever. Brian, unknown to Jesse and Sam, is desperately trying to seek a "quick fix" business deal that will put him back on top financially after being let go from his executive position at one of the top investment 



firms.



General

Complete name                            : Pressed 2011 BRRip x264 AAC-BiGKATS.mp4

Format                                   : MPEG-4

Format profile                           : Base Media

Codec ID                                 : isom

File size                                : 700 MiB

Duration                                 : 1h 45mn

Overall bit rate mode                    : Variable

Overall bit rate                         : 931 Kbps

Encoded date                             : UTC 2013-01-13 20:15:37

Tagged date                              : UTC 2013-01-13 20:15:37



Video

ID                                       : 1

Format                                   : AVC

Format/Info                              : Advanced Video Codec

Format profile                           : High@L4.1

Format settings, CABAC                   : Yes

Format settings, ReFrames                : 3 frames

Format settings, GOP                     : M=4, N=23

Codec ID                                 : avc1

Codec ID/Info                            : Advanced Video Coding

Duration                                 : 1h 45mn

Bit rate mode                            : Variable

Bit rate                                 : 800 Kbps

Maximum bit rate                         : 40.0 Mbps

Width                                    : 720 pixels

Height                                   : 304 pixels

Display aspect ratio                     : 2.35:1

Frame rate mode                          : Constant

Frame rate                               : 23.976 fps

Color space                              : YUV

Chroma subsampling                       : 4:2:0

Bit depth                                : 8 bits

Scan type                                : Progressive

Bits/(Pixel*Frame)                       : 0.152

Stream size                              : 601 MiB (86%)

Writing library                          : x264 core 129 r2245 bc13772



Audio

ID                                       : 2

Format                                   : AAC

Format/Info                              : Advanced Audio Codec

Format profile                           : LC

Codec ID                                 : 40

Duration                                 : 1h 45mn

Bit rate mode                            : Variable

Bit rate                                 : 128 Kbps

Maximum bit rate                         : 140 Kbps

Channel(s)                               : 6 channels

Channel positions                        : Front: L C R, Side: L R, LFE

Sampling rate                            : 48.0 KHz

Compression mode                         : Lossy

Stream size                              : 95.9 MiB (14%)

Language                                 : English

Encoded date                             : UTC 2013-01-13 18:25:29

Tagged date                              : UTC 2013-01-13 20:16:14


 
http://www.shotpix.com/images/01550116985309275618.png 
http://www.shotpix.com/images/60431715898147985638.png 
http://www.shotpix.com/images/57068966311401106056.png